<svg id="Layer_1" data-name="Layer 1" xmlns="http://www.w3.org/2000/svg" viewBox="0 0 157.9 158.8"><defs><style>.cls-1{fill:#fff;}</style></defs><title>Turn-In_mark-white</title><polygon class="cls-1" points="89.37 124.45 89.37 68.86 116.12 68.86 116.12 50.27 41.99 50.27 41.99 68.86 68.66 68.86 68.66 124.45 89.37 124.45"/><path class="cls-1" d="M79,2.46A76.87,76.87,0,0,0,30.89,19.3L22.61,11,18.68,43.24,50.9,39.31l-8.47-8.47a61,61,0,0,1,91.21,75.88l14.65,6.92A77.2,77.2,0,0,0,79,2.46Z"/><path class="cls-1" d="M115.47,128.53A61,61,0,0,1,24.26,52.65L9.6,45.73A77.18,77.18,0,0,0,127,140.07l8.28,8.28,3.93-32.23L107,120.05Z"/></svg>