<svg id="Layer_1" data-name="Layer 1" xmlns="http://www.w3.org/2000/svg" viewBox="0 0 505.67 140.5"><title>Turn-In_logo-black</title><path d="M193.26,106.8h-8.87V38.42H160.24V30.54h57.17v7.88H193.26Z"/><path d="M227.17,49.64V86.72q0,7,3.18,10.43t10,3.45q9,0,13.12-4.91t4.15-16v-30h8.66V106.8h-7.15l-1.25-7.66h-.47A17.21,17.21,0,0,1,250,105.6a24.76,24.76,0,0,1-10.77,2.25q-10.44,0-15.62-5T218.41,87V49.64Z"/><path d="M310.68,48.59a33.58,33.58,0,0,1,6.83.63l-1.2,8a29.54,29.54,0,0,0-6.26-.78,15.24,15.24,0,0,0-11.86,5.63,20.54,20.54,0,0,0-4.93,14V106.8H284.6V49.64h7.15l1,10.58h.41a25,25,0,0,1,7.67-8.6A17.25,17.25,0,0,1,310.68,48.59Z"/><path d="M367.33,106.8v-37q0-7-3.18-10.43t-10-3.44q-9,0-13.14,4.85t-4.17,16v30h-8.66V49.64h7l1.41,7.82h.42a17.63,17.63,0,0,1,7.45-6.55,24.37,24.37,0,0,1,10.7-2.32q10.32,0,15.54,5T376,69.51V106.8Z"/><path d="M389,82.13V74.2h25.61v7.93Z"/><path d="M429.45,106.8V30.54h8.87V106.8Z"/><path d="M494.92,106.8v-37q0-7-3.18-10.43t-10-3.44q-9,0-13.14,4.85t-4.17,16v30H455.8V49.64h7l1.41,7.82h.41a17.72,17.72,0,0,1,7.46-6.55,24.37,24.37,0,0,1,10.7-2.32q10.32,0,15.54,5t5.22,15.94V106.8Z"/><polygon points="79.44 110.18 79.44 60.43 103.38 60.43 103.38 43.79 37.04 43.79 37.04 60.43 60.91 60.43 60.91 110.18 79.44 110.18"/><path d="M70.11,1a68.76,68.76,0,0,0-43,15.07L19.69,8.67,16.17,37.5,45,34l-7.58-7.58a54.58,54.58,0,0,1,81.63,67.9l13.11,6.2A69.09,69.09,0,0,0,70.11,1Z"/><path d="M102.8,113.83A54.59,54.59,0,0,1,21.16,45.92L8.05,39.72a69.08,69.08,0,0,0,105.08,84.44l7.4,7.41,3.52-28.84-28.84,3.52Z"/></svg>