<svg id="Layer_1" data-name="Layer 1" xmlns="http://www.w3.org/2000/svg" viewBox="0 0 505.67 140.5"><defs><style>.cls-1{fill:#fff;}</style></defs><title>Turn-In_Artboard 6</title><path class="cls-1" d="M193.8,106.94h-8.86V38.55H160.79V30.68H218v7.87H193.8Z"/><path class="cls-1" d="M227.72,49.77V86.85q0,7,3.18,10.44t10,3.44q9,0,13.12-4.9t4.15-16v-30h8.66v57.17h-7.15l-1.25-7.67h-.47a17.3,17.3,0,0,1-7.38,6.47A24.9,24.9,0,0,1,239.77,108q-10.44,0-15.63-5T219,87.17V49.77Z"/><path class="cls-1" d="M311.23,48.72a33.65,33.65,0,0,1,6.83.63l-1.2,8a29.54,29.54,0,0,0-6.26-.78,15.24,15.24,0,0,0-11.86,5.63,20.54,20.54,0,0,0-4.93,14v30.68h-8.66V49.77h7.14l1,10.59h.42a25.18,25.18,0,0,1,7.67-8.61A17.25,17.25,0,0,1,311.23,48.72Z"/><path class="cls-1" d="M367.88,106.94V70q0-7-3.19-10.43t-10-3.44q-9,0-13.14,4.85t-4.18,16v30h-8.66V49.77h7.05l1.41,7.82h.41A17.72,17.72,0,0,1,345.08,51a24.33,24.33,0,0,1,10.69-2.32q10.34,0,15.55,5t5.21,15.93v37.3Z"/><path class="cls-1" d="M389.52,82.26V74.34h25.61v7.92Z"/><path class="cls-1" d="M430,106.94V30.68h8.87v76.26Z"/><path class="cls-1" d="M495.46,106.94V70q0-7-3.18-10.43t-10-3.44q-9,0-13.14,4.85t-4.18,16v30h-8.66V49.77h7.05l1.4,7.82h.42A17.66,17.66,0,0,1,472.67,51a24.33,24.33,0,0,1,10.69-2.32q10.33,0,15.55,5t5.21,15.93v37.3Z"/><polygon class="cls-1" points="79.98 110.31 79.98 60.56 103.93 60.56 103.93 43.92 37.58 43.92 37.58 60.56 61.45 60.56 61.45 110.31 79.98 110.31"/><path class="cls-1" d="M70.66,1.14a68.76,68.76,0,0,0-43,15.07L20.24,8.8,16.72,37.64l28.84-3.52L38,26.54a54.59,54.59,0,0,1,81.63,67.91l13.11,6.19A69.09,69.09,0,0,0,70.66,1.14Z"/><path class="cls-1" d="M103.35,114A54.59,54.59,0,0,1,21.71,46.05L8.6,39.86a69.07,69.07,0,0,0,105.07,84.43l7.41,7.41,3.52-28.84-28.84,3.52Z"/></svg>