<?xml version="1.0" standalone="no"?>
<!DOCTYPE svg PUBLIC "-//W3C//DTD SVG 20010904//EN"
 "http://www.w3.org/TR/2001/REC-SVG-20010904/DTD/svg10.dtd">
<svg version="1.0" xmlns="http://www.w3.org/2000/svg"
 width="636.000000pt" height="636.000000pt" viewBox="0 0 636.000000 636.000000"
 preserveAspectRatio="xMidYMid meet">
<metadata>
Created by potrace 1.14, written by Peter Selinger 2001-2017
</metadata>
<g transform="translate(0.000000,636.000000) scale(0.100000,-0.100000)"
fill="#000000" stroke="none">
<path d="M3087 6264 c-1 -1 -52 -5 -112 -8 -61 -3 -121 -8 -134 -11 -13 -2
-49 -7 -80 -11 -62 -7 -297 -51 -321 -61 -8 -3 -22 -7 -30 -8 -20 -3 -101 -24
-120 -32 -8 -3 -19 -7 -25 -9 -74 -18 -286 -101 -406 -158 -85 -40 -282 -146
-289 -156 -3 -4 -24 -17 -47 -30 -24 -13 -43 -27 -43 -32 0 -4 -6 -8 -12 -8
-7 0 -58 -34 -112 -75 -55 -41 -101 -74 -102 -73 -2 2 -75 75 -164 162 -88 87
-162 157 -165 155 -2 -3 -7 -27 -10 -54 -3 -28 -10 -86 -16 -130 -5 -44 -11
-93 -14 -110 -2 -16 -7 -57 -10 -90 -4 -33 -8 -71 -10 -84 -3 -14 -7 -51 -10
-84 -4 -32 -8 -67 -10 -78 -2 -11 -7 -47 -10 -80 -4 -33 -8 -68 -10 -77 -1 -9
-6 -46 -10 -82 -4 -36 -9 -78 -11 -95 -2 -16 -6 -52 -9 -80 -3 -27 -7 -61 -10
-75 -2 -14 -7 -56 -11 -93 l-6 -68 53 6 c30 3 68 8 84 10 37 6 82 11 160 21
33 3 68 8 78 10 10 2 46 6 80 9 65 7 121 13 172 20 17 3 50 7 75 9 25 3 45 6
45 6 0 1 14 3 30 4 17 2 57 7 90 11 33 4 74 9 90 11 75 8 132 15 156 19 26 5
134 17 157 18 6 0 12 3 12 6 0 3 -74 80 -165 170 -182 182 -177 169 -97 216
17 11 32 23 32 27 0 4 4 8 10 8 8 0 57 29 96 57 13 10 58 35 153 84 187 98
449 185 681 228 251 47 599 47 845 1 28 -5 61 -11 75 -14 41 -7 81 -17 155
-39 39 -11 75 -21 80 -22 6 -1 17 -4 25 -7 8 -4 44 -16 80 -29 36 -12 70 -25
75 -29 6 -4 21 -11 35 -15 27 -8 212 -98 272 -133 52 -30 172 -105 178 -112 3
-3 39 -30 80 -61 212 -159 403 -362 554 -589 79 -118 146 -237 138 -244 -3 -3
0 -6 6 -6 7 0 12 -4 12 -9 0 -5 15 -42 34 -83 46 -98 86 -198 86 -215 0 -7 4
-21 9 -31 12 -22 37 -102 52 -167 6 -27 13 -59 15 -70 3 -11 12 -54 19 -95 8
-41 17 -85 19 -97 27 -126 25 -507 -3 -683 -6 -36 -13 -83 -16 -105 -4 -22
-11 -58 -17 -80 -5 -22 -12 -49 -14 -59 -18 -95 -108 -347 -160 -449 -23 -46
-17 -55 49 -86 69 -33 219 -104 372 -176 152 -72 143 -70 159 -32 7 17 28 62
45 99 17 36 31 72 31 80 0 8 4 18 9 23 9 11 87 235 95 275 3 14 10 41 16 60
12 38 23 88 45 200 13 61 15 78 21 120 3 25 7 52 9 60 4 15 14 108 20 200 5
62 5 365 0 420 -2 25 -6 72 -10 105 -3 33 -8 74 -10 90 -4 47 -24 160 -41 239
-9 39 -17 80 -19 91 -12 56 -78 265 -120 375 -44 115 -122 282 -190 405 -15
28 -33 60 -39 72 -6 13 -14 23 -18 23 -5 0 -8 5 -8 11 0 17 -131 205 -227 324
-224 279 -568 573 -873 744 -94 53 -296 150 -335 161 -5 2 -33 14 -62 26 -137
61 -487 160 -594 169 -21 2 -41 5 -46 8 -4 3 -33 8 -63 11 -30 4 -68 8 -85 10
-83 11 -430 26 -438 20z"/>
<path d="M375 4473 c-49 -105 -143 -353 -150 -393 0 -3 -6 -21 -13 -41 -7 -20
-14 -45 -16 -55 -2 -11 -9 -39 -16 -64 -7 -25 -14 -56 -16 -70 -3 -14 -7 -33
-10 -42 -3 -10 -7 -30 -10 -45 -2 -16 -9 -50 -14 -78 -29 -161 -41 -315 -41
-524 0 -86 3 -176 5 -201 2 -25 7 -79 10 -120 4 -41 9 -86 11 -100 6 -30 9
-45 24 -135 7 -38 16 -86 21 -105 5 -19 17 -66 26 -105 29 -124 94 -315 151
-445 49 -113 154 -316 197 -385 206 -325 382 -529 675 -781 64 -55 170 -134
180 -134 5 0 11 -4 13 -9 11 -31 385 -241 578 -324 84 -37 336 -122 420 -142
93 -23 181 -42 221 -49 19 -3 43 -7 54 -10 11 -2 49 -7 85 -11 36 -4 68 -9 71
-11 10 -6 215 -17 334 -17 104 -1 308 9 350 17 11 2 46 7 79 11 110 13 282 48
401 81 50 14 97 27 105 29 27 6 236 84 294 110 31 14 58 25 61 25 9 1 213 108
287 151 40 23 113 70 162 103 49 34 96 66 105 71 9 6 18 12 21 15 3 3 21 18
40 32 l34 27 163 -164 c90 -90 165 -160 167 -157 2 4 7 32 10 62 12 102 16
135 21 170 3 19 7 58 10 85 3 28 6 59 9 70 4 22 16 119 22 180 7 74 12 120 18
150 2 17 7 55 10 85 4 30 8 71 11 90 2 19 7 55 10 80 6 55 16 128 20 156 2 11
6 51 10 88 l7 67 -28 -5 c-41 -6 -101 -14 -154 -21 -64 -7 -118 -13 -170 -20
-46 -6 -90 -11 -170 -20 -25 -3 -56 -7 -70 -9 -14 -2 -50 -7 -80 -10 -66 -8
-121 -14 -175 -21 -47 -7 -89 -11 -165 -19 -30 -4 -66 -8 -80 -11 -28 -5 -125
-17 -155 -19 -11 -1 -22 -5 -25 -9 -3 -4 69 -82 160 -173 96 -95 160 -168 154
-172 -125 -85 -231 -152 -292 -184 -43 -22 -81 -43 -87 -46 -5 -4 -39 -20 -75
-35 -192 -83 -378 -142 -540 -171 -203 -36 -256 -41 -480 -40 -212 1 -338 14
-516 55 -49 11 -99 22 -110 24 -26 6 -250 82 -279 94 -155 69 -367 179 -385
201 -3 3 -26 18 -52 33 -26 15 -53 33 -60 40 -7 6 -38 31 -68 53 -126 94 -297
260 -402 389 -57 70 -185 253 -227 325 -33 56 -134 264 -146 300 -1 3 -6 16
-12 30 -75 179 -139 452 -159 675 -18 196 -2 544 31 665 4 16 16 75 20 100 1
8 8 35 15 60 7 25 13 50 14 55 3 15 56 177 66 200 4 11 29 66 53 123 l46 103
-157 76 c-150 72 -261 124 -272 128 -6 2 -143 66 -152 71 -3 2 -18 -22 -33
-53z"/>
<path d="M1698 4187 c-2 -89 -2 -257 0 -373 l3 -211 522 -1 c287 0 527 -1 534
-1 9 -1 12 -255 12 -1068 0 -588 0 -1088 1 -1113 l0 -45 413 0 412 0 1 1107
c0 609 3 1110 7 1114 4 4 244 7 534 8 l528 1 3 372 2 371 -1485 0 -1485 0 -2
-161z"/>
</g>
</svg>
